<svg width="152" height="150" viewBox="0 0 152 150" fill="none" xmlns="http://www.w3.org/2000/svg">
<path d="M56.5 148L57.5 146V131L54.5 131.5L50 132H47L42 131L38 129L35 126.5L33 123.5L31 119.5L28.5 115L25.5 112L22 109.5L20.5 108.5V107.5L21.5 106.5L24 106L26.5 106.5L30.5 108.5L33 110.5L35 113L37 115.5L39.5 118.5L43 121L46 122H48H52L55.5 121.5L58 120.5V120L58.5 117.5L59.5 114.5L61 112L62.5 110L58.5 109.5L52 108L46.5 106L42 103.5L37.5 100L34 95.5L31.5 91L30 87L29 83L28.5 79.5V74V68.5L29.5 64L31 60L33 56L35 53.5L36 52L35 49L34.5 46V40.5L35 37L36 33.5L37 32H41.5L46 33.5L50 35.5L54.5 38L57.5 40L61 39L67 38L71.5 37.5H78H84.5L90 38.5L92.5 39L95 39.5L96.5 38.5L100.5 36L106 33.5L111 32L114.5 31.5L116 32L116.5 33L117 35.5L117.5 37.5L118 41V44V48L117.5 50L117 51V52L119 54.5L121 58L122.5 61.5L124 65L124.5 68.5V71V74.5V76.5L124 79.5L123.5 83.5L123 86L121.5 90L120.5 92.5L119 95L117.5 97L116 99L112.5 102L110 104L107 105.5L105 106.5L101.5 107.5L98 108.5L96 109L93.5 109.5H91.5H90L89.5 110L91 111.5L92.5 113.5L93.5 115.5L94.5 118L95 121V125V136.5V144.5V146.5L96 148L97.5 149H99L100.5 148.5L103.5 147.5L110 144.5L115.5 141.5L120.5 138L125.5 134L129.5 130L133.5 125.5L137 121.5L140.5 116L144 110L146 105.5L148.5 98.5L150.5 90.5L151.5 83V75L151 67L150 61L148.5 55L146 47.5L143 41L139.5 35L135.5 29.5L132 25L126.5 20L121.5 15.5L118 13L113.5 10.5L109 8L103.5 5.5L97.5 3.5L90.5 2L84.5 1L79 0.5H75L68.5 1L64.5 1.5L59.5 2.5L53.5 4L48 6L41.5 9L35.5 12.5L30.5 16L25.5 20L21.5 24L17.5 28.5L14 33.5L8.5 43L5.5 50L3 57.5L2 63.5L1 71V80L1.5 86.5L3 95L5 101.5L7 107L10 113L13 118L16 122L19 126L21.5 129L24.5 132L27.5 134.5L30.5 137L36.5 141L41.5 144L47 146.5L50.5 148L52 148.5L53.5 149H55L56.5 148Z" fill="white" stroke="white" stroke-width="0.5"/>
</svg>
